REM DIRINDEX 1\2,1\3
REM DIRNAME cjc103,folder01,folder02
TITLE ""
FILE "Track76.mp3" MP3
  TRACK 01 AUDIO
    TITLE "2:cjc103_722"
    INDEX 01 00:00:00
  TRACK 02 AUDIO
    TITLE "0:"
    INDEX 01 00:01:52
  TRACK 03 AUDIO
    TITLE "3:cjc103_723"
    INDEX 01 00:02:38
  TRACK 04 AUDIO
    TITLE "0:"
    INDEX 01 00:04:05
